<?xml version="1.0" encoding="UTF-8"?>
<!-- Do not edit this file with editors other than draw.io -->
<!DOCTYPE svg PUBLIC "-//W3C//DTD SVG 1.1//EN" "http://www.w3.org/Graphics/SVG/1.1/DTD/svg11.dtd">
<svg xmlns="http://www.w3.org/2000/svg" xmlns:xlink="http://www.w3.org/1999/xlink" version="1.1" width="252px" height="137px" viewBox="-0.5 -0.5 252 137" content="&lt;mxfile host=&quot;app.diagrams.net&quot; modified=&quot;2023-08-14T03:02:12.211Z&quot; agent=&quot;Mozilla/5.0 (Windows NT 10.0; Win64; x64) AppleWebKit/537.36 (KHTML, like Gecko) Chrome/114.0.0.0 Safari/537.36&quot; etag=&quot;HXoDOZHpk43468JLwYbX&quot; version=&quot;21.6.6&quot; type=&quot;github&quot;&gt;&#10;  &lt;diagram name=&quot;第 1 页&quot; id=&quot;nba9aPpc-MP4Tc8M5DZ-&quot;&gt;&#10;    &lt;mxGraphModel dx=&quot;574&quot; dy=&quot;318&quot; grid=&quot;1&quot; gridSize=&quot;10&quot; guides=&quot;1&quot; tooltips=&quot;1&quot; connect=&quot;1&quot; arrows=&quot;1&quot; fold=&quot;1&quot; page=&quot;1&quot; pageScale=&quot;1&quot; pageWidth=&quot;827&quot; pageHeight=&quot;1169&quot; background=&quot;#ffffff&quot; math=&quot;0&quot; shadow=&quot;0&quot;&gt;&#10;      &lt;root&gt;&#10;        &lt;mxCell id=&quot;0&quot; /&gt;&#10;        &lt;mxCell id=&quot;1&quot; parent=&quot;0&quot; /&gt;&#10;        &lt;mxCell id=&quot;WEuhzbe2xMTvDmuwYaiZ-13&quot; value=&quot;&quot; style=&quot;rounded=0;whiteSpace=wrap;html=1;&quot; vertex=&quot;1&quot; parent=&quot;1&quot;&gt;&#10;          &lt;mxGeometry x=&quot;240&quot; y=&quot;120&quot; width=&quot;60&quot; height=&quot;60&quot; as=&quot;geometry&quot; /&gt;&#10;        &lt;/mxCell&gt;&#10;        &lt;mxCell id=&quot;WEuhzbe2xMTvDmuwYaiZ-14&quot; value=&quot;&quot; style=&quot;rounded=0;whiteSpace=wrap;html=1;&quot; vertex=&quot;1&quot; parent=&quot;1&quot;&gt;&#10;          &lt;mxGeometry x=&quot;220&quot; y=&quot;145&quot; width=&quot;60&quot; height=&quot;60&quot; as=&quot;geometry&quot; /&gt;&#10;        &lt;/mxCell&gt;&#10;        &lt;mxCell id=&quot;WEuhzbe2xMTvDmuwYaiZ-4&quot; value=&quot;&quot; style=&quot;shape=cube;whiteSpace=wrap;html=1;boundedLbl=1;backgroundOutline=1;darkOpacity=0.05;darkOpacity2=0.1;flipH=1;size=10;&quot; vertex=&quot;1&quot; parent=&quot;1&quot;&gt;&#10;          &lt;mxGeometry x=&quot;90&quot; y=&quot;120&quot; width=&quot;70&quot; height=&quot;70&quot; as=&quot;geometry&quot; /&gt;&#10;        &lt;/mxCell&gt;&#10;        &lt;mxCell id=&quot;WEuhzbe2xMTvDmuwYaiZ-5&quot; value=&quot;&quot; style=&quot;shape=cube;whiteSpace=wrap;html=1;boundedLbl=1;backgroundOutline=1;darkOpacity=0.05;darkOpacity2=0.1;flipH=1;size=10;&quot; vertex=&quot;1&quot; parent=&quot;1&quot;&gt;&#10;          &lt;mxGeometry x=&quot;80&quot; y=&quot;130&quot; width=&quot;70&quot; height=&quot;70&quot; as=&quot;geometry&quot; /&gt;&#10;        &lt;/mxCell&gt;&#10;        &lt;mxCell id=&quot;WEuhzbe2xMTvDmuwYaiZ-6&quot; value=&quot;&quot; style=&quot;shape=cube;whiteSpace=wrap;html=1;boundedLbl=1;backgroundOutline=1;darkOpacity=0.05;darkOpacity2=0.1;flipH=1;size=10;&quot; vertex=&quot;1&quot; parent=&quot;1&quot;&gt;&#10;          &lt;mxGeometry x=&quot;70&quot; y=&quot;140&quot; width=&quot;70&quot; height=&quot;70&quot; as=&quot;geometry&quot; /&gt;&#10;        &lt;/mxCell&gt;&#10;        &lt;mxCell id=&quot;WEuhzbe2xMTvDmuwYaiZ-7&quot; value=&quot;&quot; style=&quot;shape=cube;whiteSpace=wrap;html=1;boundedLbl=1;backgroundOutline=1;darkOpacity=0.05;darkOpacity2=0.1;flipH=1;size=10;&quot; vertex=&quot;1&quot; parent=&quot;1&quot;&gt;&#10;          &lt;mxGeometry x=&quot;60&quot; y=&quot;150&quot; width=&quot;70&quot; height=&quot;70&quot; as=&quot;geometry&quot; /&gt;&#10;        &lt;/mxCell&gt;&#10;        &lt;mxCell id=&quot;WEuhzbe2xMTvDmuwYaiZ-8&quot; value=&quot;&quot; style=&quot;shape=cube;whiteSpace=wrap;html=1;boundedLbl=1;backgroundOutline=1;darkOpacity=0.05;darkOpacity2=0.1;flipH=1;size=10;&quot; vertex=&quot;1&quot; parent=&quot;1&quot;&gt;&#10;          &lt;mxGeometry x=&quot;50&quot; y=&quot;160&quot; width=&quot;70&quot; height=&quot;70&quot; as=&quot;geometry&quot; /&gt;&#10;        &lt;/mxCell&gt;&#10;        &lt;mxCell id=&quot;WEuhzbe2xMTvDmuwYaiZ-12&quot; value=&quot;&quot; style=&quot;rounded=0;whiteSpace=wrap;html=1;&quot; vertex=&quot;1&quot; parent=&quot;1&quot;&gt;&#10;          &lt;mxGeometry x=&quot;200&quot; y=&quot;170&quot; width=&quot;60&quot; height=&quot;60&quot; as=&quot;geometry&quot; /&gt;&#10;        &lt;/mxCell&gt;&#10;        &lt;mxCell id=&quot;WEuhzbe2xMTvDmuwYaiZ-11&quot; value=&quot;&quot; style=&quot;endArrow=classic;html=1;curved=1;exitX=0.571;exitY=0.143;exitDx=0;exitDy=0;exitPerimeter=0;entryX=0.5;entryY=0;entryDx=0;entryDy=0;&quot; edge=&quot;1&quot; parent=&quot;1&quot; source=&quot;WEuhzbe2xMTvDmuwYaiZ-8&quot; target=&quot;WEuhzbe2xMTvDmuwYaiZ-12&quot;&gt;&#10;          &lt;mxGeometry width=&quot;50&quot; height=&quot;50&quot; relative=&quot;1&quot; as=&quot;geometry&quot;&gt;&#10;            &lt;mxPoint x=&quot;110&quot; y=&quot;200&quot; as=&quot;sourcePoint&quot; /&gt;&#10;            &lt;mxPoint x=&quot;230&quot; y=&quot;200&quot; as=&quot;targetPoint&quot; /&gt;&#10;            &lt;Array as=&quot;points&quot;&gt;&#10;              &lt;mxPoint x=&quot;170&quot; y=&quot;130&quot; /&gt;&#10;            &lt;/Array&gt;&#10;          &lt;/mxGeometry&gt;&#10;        &lt;/mxCell&gt;&#10;        &lt;mxCell id=&quot;WEuhzbe2xMTvDmuwYaiZ-15&quot; value=&quot;&quot; style=&quot;endArrow=none;dashed=1;html=1;dashPattern=1 3;strokeWidth=2;rounded=0;&quot; edge=&quot;1&quot; parent=&quot;1&quot;&gt;&#10;          &lt;mxGeometry width=&quot;50&quot; height=&quot;50&quot; relative=&quot;1&quot; as=&quot;geometry&quot;&gt;&#10;            &lt;mxPoint x=&quot;290&quot; y=&quot;200&quot; as=&quot;sourcePoint&quot; /&gt;&#10;            &lt;mxPoint x=&quot;300&quot; y=&quot;185&quot; as=&quot;targetPoint&quot; /&gt;&#10;          &lt;/mxGeometry&gt;&#10;        &lt;/mxCell&gt;&#10;        &lt;mxCell id=&quot;WEuhzbe2xMTvDmuwYaiZ-16&quot; value=&quot;&quot; style=&quot;endArrow=none;dashed=1;html=1;dashPattern=1 3;strokeWidth=2;rounded=0;&quot; edge=&quot;1&quot; parent=&quot;1&quot;&gt;&#10;          &lt;mxGeometry width=&quot;50&quot; height=&quot;50&quot; relative=&quot;1&quot; as=&quot;geometry&quot;&gt;&#10;            &lt;mxPoint x=&quot;265&quot; y=&quot;225&quot; as=&quot;sourcePoint&quot; /&gt;&#10;            &lt;mxPoint x=&quot;275&quot; y=&quot;210&quot; as=&quot;targetPoint&quot; /&gt;&#10;          &lt;/mxGeometry&gt;&#10;        &lt;/mxCell&gt;&#10;        &lt;mxCell id=&quot;WEuhzbe2xMTvDmuwYaiZ-17&quot; value=&quot;&quot; style=&quot;endArrow=classic;html=1;curved=1;entryX=0.547;entryY=0.013;entryDx=0;entryDy=0;entryPerimeter=0;&quot; edge=&quot;1&quot; parent=&quot;1&quot; target=&quot;WEuhzbe2xMTvDmuwYaiZ-13&quot;&gt;&#10;          &lt;mxGeometry width=&quot;50&quot; height=&quot;50&quot; relative=&quot;1&quot; as=&quot;geometry&quot;&gt;&#10;            &lt;mxPoint x=&quot;130&quot; y=&quot;120&quot; as=&quot;sourcePoint&quot; /&gt;&#10;            &lt;mxPoint x=&quot;240&quot; y=&quot;130&quot; as=&quot;targetPoint&quot; /&gt;&#10;            &lt;Array as=&quot;points&quot;&gt;&#10;              &lt;mxPoint x=&quot;170&quot; y=&quot;70&quot; /&gt;&#10;            &lt;/Array&gt;&#10;          &lt;/mxGeometry&gt;&#10;        &lt;/mxCell&gt;&#10;        &lt;mxCell id=&quot;WEuhzbe2xMTvDmuwYaiZ-18&quot; value=&quot;&quot; style=&quot;endArrow=classic;html=1;curved=1;entryX=0.5;entryY=0;entryDx=0;entryDy=0;exitX=0.354;exitY=-0.051;exitDx=0;exitDy=0;exitPerimeter=0;&quot; edge=&quot;1&quot; parent=&quot;1&quot; source=&quot;WEuhzbe2xMTvDmuwYaiZ-7&quot; target=&quot;WEuhzbe2xMTvDmuwYaiZ-14&quot;&gt;&#10;          &lt;mxGeometry width=&quot;50&quot; height=&quot;50&quot; relative=&quot;1&quot; as=&quot;geometry&quot;&gt;&#10;            &lt;mxPoint x=&quot;90&quot; y=&quot;150&quot; as=&quot;sourcePoint&quot; /&gt;&#10;            &lt;mxPoint x=&quot;243&quot; y=&quot;141&quot; as=&quot;targetPoint&quot; /&gt;&#10;            &lt;Array as=&quot;points&quot;&gt;&#10;              &lt;mxPoint x=&quot;170&quot; y=&quot;90&quot; /&gt;&#10;            &lt;/Array&gt;&#10;          &lt;/mxGeometry&gt;&#10;        &lt;/mxCell&gt;&#10;      &lt;/root&gt;&#10;    &lt;/mxGraphModel&gt;&#10;  &lt;/diagram&gt;&#10;&lt;/mxfile&gt;&#10;" resource="https://app.diagrams.net/?src=about#HDemonH-p%2Fself-study%2Fmain%2F4.svg" style="background-color: rgb(255, 255, 255);"><defs/><g><rect x="190" y="26" width="60" height="60" fill="rgb(255, 255, 255)" stroke="rgb(0, 0, 0)" pointer-events="all"/><rect x="170" y="51" width="60" height="60" fill="rgb(255, 255, 255)" stroke="rgb(0, 0, 0)" pointer-events="all"/><path d="M 40 26 L 100 26 L 110 36 L 110 96 L 50 96 L 40 86 L 40 26 Z" fill="rgb(255, 255, 255)" stroke="rgb(0, 0, 0)" stroke-miterlimit="10" transform="translate(75,0)scale(-1,1)translate(-75,0)" pointer-events="all"/><path d="M 40 26 L 100 26 L 110 36 L 50 36 Z" fill-opacity="0.05" fill="#000000" stroke="none" transform="translate(75,0)scale(-1,1)translate(-75,0)" pointer-events="all"/><path d="M 40 26 L 50 36 L 50 96 L 40 86 Z" fill-opacity="0.1" fill="#000000" stroke="none" transform="translate(75,0)scale(-1,1)translate(-75,0)" pointer-events="all"/><path d="M 50 96 L 50 36 L 40 26 M 50 36 L 110 36" fill="none" stroke="rgb(0, 0, 0)" stroke-miterlimit="10" transform="translate(75,0)scale(-1,1)translate(-75,0)" pointer-events="all"/><path d="M 30 36 L 90 36 L 100 46 L 100 106 L 40 106 L 30 96 L 30 36 Z" fill="rgb(255, 255, 255)" stroke="rgb(0, 0, 0)" stroke-miterlimit="10" transform="translate(65,0)scale(-1,1)translate(-65,0)" pointer-events="all"/><path d="M 30 36 L 90 36 L 100 46 L 40 46 Z" fill-opacity="0.05" fill="#000000" stroke="none" transform="translate(65,0)scale(-1,1)translate(-65,0)" pointer-events="all"/><path d="M 30 36 L 40 46 L 40 106 L 30 96 Z" fill-opacity="0.1" fill="#000000" stroke="none" transform="translate(65,0)scale(-1,1)translate(-65,0)" pointer-events="all"/><path d="M 40 106 L 40 46 L 30 36 M 40 46 L 100 46" fill="none" stroke="rgb(0, 0, 0)" stroke-miterlimit="10" transform="translate(65,0)scale(-1,1)translate(-65,0)" pointer-events="all"/><path d="M 20 46 L 80 46 L 90 56 L 90 116 L 30 116 L 20 106 L 20 46 Z" fill="rgb(255, 255, 255)" stroke="rgb(0, 0, 0)" stroke-miterlimit="10" transform="translate(55,0)scale(-1,1)translate(-55,0)" pointer-events="all"/><path d="M 20 46 L 80 46 L 90 56 L 30 56 Z" fill-opacity="0.05" fill="#000000" stroke="none" transform="translate(55,0)scale(-1,1)translate(-55,0)" pointer-events="all"/><path d="M 20 46 L 30 56 L 30 116 L 20 106 Z" fill-opacity="0.1" fill="#000000" stroke="none" transform="translate(55,0)scale(-1,1)translate(-55,0)" pointer-events="all"/><path d="M 30 116 L 30 56 L 20 46 M 30 56 L 90 56" fill="none" stroke="rgb(0, 0, 0)" stroke-miterlimit="10" transform="translate(55,0)scale(-1,1)translate(-55,0)" pointer-events="all"/><path d="M 10 56 L 70 56 L 80 66 L 80 126 L 20 126 L 10 116 L 10 56 Z" fill="rgb(255, 255, 255)" stroke="rgb(0, 0, 0)" stroke-miterlimit="10" transform="translate(45,0)scale(-1,1)translate(-45,0)" pointer-events="all"/><path d="M 10 56 L 70 56 L 80 66 L 20 66 Z" fill-opacity="0.05" fill="#000000" stroke="none" transform="translate(45,0)scale(-1,1)translate(-45,0)" pointer-events="all"/><path d="M 10 56 L 20 66 L 20 126 L 10 116 Z" fill-opacity="0.1" fill="#000000" stroke="none" transform="translate(45,0)scale(-1,1)translate(-45,0)" pointer-events="all"/><path d="M 20 126 L 20 66 L 10 56 M 20 66 L 80 66" fill="none" stroke="rgb(0, 0, 0)" stroke-miterlimit="10" transform="translate(45,0)scale(-1,1)translate(-45,0)" pointer-events="all"/><path d="M 0 66 L 60 66 L 70 76 L 70 136 L 10 136 L 0 126 L 0 66 Z" fill="rgb(255, 255, 255)" stroke="rgb(0, 0, 0)" stroke-miterlimit="10" transform="translate(35,0)scale(-1,1)translate(-35,0)" pointer-events="all"/><path d="M 0 66 L 60 66 L 70 76 L 10 76 Z" fill-opacity="0.05" fill="#000000" stroke="none" transform="translate(35,0)scale(-1,1)translate(-35,0)" pointer-events="all"/><path d="M 0 66 L 10 76 L 10 136 L 0 126 Z" fill-opacity="0.1" fill="#000000" stroke="none" transform="translate(35,0)scale(-1,1)translate(-35,0)" pointer-events="all"/><path d="M 10 136 L 10 76 L 0 66 M 10 76 L 70 76" fill="none" stroke="rgb(0, 0, 0)" stroke-miterlimit="10" transform="translate(35,0)scale(-1,1)translate(-35,0)" pointer-events="all"/><rect x="150" y="76" width="60" height="60" fill="rgb(255, 255, 255)" stroke="rgb(0, 0, 0)" pointer-events="all"/><path d="M 30.03 76.01 Q 120 36 174.7 72.47" fill="none" stroke="rgb(0, 0, 0)" stroke-miterlimit="10" pointer-events="stroke"/><path d="M 179.07 75.38 L 171.3 74.41 L 174.7 72.47 L 175.19 68.58 Z" fill="rgb(0, 0, 0)" stroke="rgb(0, 0, 0)" stroke-miterlimit="10" pointer-events="all"/><path d="M 240 106 L 250 91" fill="none" stroke="rgb(0, 0, 0)" stroke-width="2" stroke-miterlimit="10" stroke-dasharray="2 6" pointer-events="stroke"/><path d="M 215 131 L 225 116" fill="none" stroke="rgb(0, 0, 0)" stroke-width="2" stroke-miterlimit="10" stroke-dasharray="2 6" pointer-events="stroke"/><path d="M 80 26 Q 120 -24 217.11 23.96" fill="none" stroke="rgb(0, 0, 0)" stroke-miterlimit="10" pointer-events="stroke"/><path d="M 221.82 26.28 L 213.99 26.32 L 217.11 23.96 L 217.09 20.05 Z" fill="rgb(0, 0, 0)" stroke="rgb(0, 0, 0)" stroke-miterlimit="10" pointer-events="all"/><path d="M 55.22 52.43 Q 120 -4 194.75 47.39" fill="none" stroke="rgb(0, 0, 0)" stroke-miterlimit="10" pointer-events="stroke"/><path d="M 199.08 50.37 L 191.33 49.29 L 194.75 47.39 L 195.29 43.52 Z" fill="rgb(0, 0, 0)" stroke="rgb(0, 0, 0)" stroke-miterlimit="10" pointer-events="all"/></g></svg>